<svg xmlns="http://www.w3.org/2000/svg" viewBox="0 0 64 64" width="64" height="64">
	<defs>
		<clipPath clipPathUnits="userSpaceOnUse" id="cp1">
			<path d="M-113 -64L1327 -64L1327 1905L-113 1905Z" />
		</clipPath>
	</defs>
	<style>
		tspan { white-space:pre }
		.shp0 { fill: #ffffff } 
	</style>
	<g id="desktop" clip-path="url(#cp1)">
		<path id="-e-ic_joyjet" fill-rule="evenodd" class="shp0" d="M32 0C49.69 0 64 14.34 64 32C64 49.66 49.66 64 32 64C14.34 64 0 49.66 0 32C0 14.34 14.31 0 32 0ZM35.84 29.16L42.79 29.14L35.89 18.38L35.84 29.16ZM32.09 5.2C31.91 5.38 29.72 7.84 28.94 13.24C29.92 13.42 31 13.51 32.09 13.53C33.18 13.53 34.26 13.42 35.24 13.24C34.43 7.84 32.27 5.4 32.09 5.2ZM10.14 45.82L15.81 45.82C17.8 45.82 19.18 45.64 20.72 44.71C22.13 43.86 23.2 42.72 24.01 41.22C24.41 40.46 24.47 39.01 24.47 38.99L24.47 31.55L21.21 31.55L21.28 37.96C21.28 40.49 19.23 42.54 16.66 42.54L10.14 42.54L10.14 45.82ZM16.66 49.44C23 49.44 28.16 44.3 28.18 37.98L28.18 31.58L24.88 31.58L24.88 39.01C24.88 39.08 24.81 40.6 24.36 41.42C23.54 42.96 22.42 44.17 20.95 45.06C19.32 46.07 17.89 46.25 15.81 46.25L10.14 46.25L10.14 49.44L16.66 49.44ZM28.25 18.38L21.19 29.14L28.16 29.16L28.25 18.38ZM32.09 36.31C32.09 36.31 33.43 34.48 33.47 31.8C33.09 31.8 32.69 31.82 32.29 31.82C31.71 31.82 31.13 31.8 30.57 31.75C30.75 34.63 32.09 36.31 32.09 36.31ZM32.25 31.4C33.36 31.4 34.43 31.31 35.46 31.15C35.46 30.66 35.46 30.17 35.46 29.66C34.43 29.81 33.36 29.9 32.25 29.9C30.97 29.9 29.72 29.79 28.58 29.59C28.58 30.41 28.58 30.97 28.58 31.08C29.72 31.29 30.97 31.4 32.25 31.4ZM35.46 29.21C35.44 25.46 35.51 17.24 35.48 17.24C35.48 15.9 35.39 14.72 35.26 13.62C34.28 13.8 33.18 13.89 32.07 13.91C30.95 13.91 29.86 13.8 28.87 13.62C28.74 14.72 28.65 15.92 28.65 17.24C28.65 17.26 28.58 25.46 28.58 29.21C29.66 29.41 30.84 29.5 32.02 29.52C33.23 29.5 34.39 29.41 35.46 29.21ZM53.86 49.44L53.86 46.22L48.19 46.22C46.11 46.22 44.66 46.02 43.05 45.04C41.6 44.15 40.46 42.96 39.64 41.4C39.19 40.57 39.12 39.06 39.12 38.99L39.12 31.55L35.82 31.55L35.82 37.96C35.82 44.3 41 49.44 47.34 49.44L53.86 49.44ZM53.88 45.85L53.88 42.56L47.36 42.56C44.8 42.56 42.74 40.51 42.74 37.98L42.81 31.58L39.55 31.58L39.55 39.01C39.55 39.01 39.61 40.49 40.02 41.24C40.82 42.72 41.89 43.88 43.3 44.73C44.82 45.67 46.2 45.85 48.21 45.85L53.88 45.85Z" />
	</g>
</svg>